Coordinates
version=1
nRows=4
nColumns=107
inDegrees=yes

Units are S.I. units (second, meters, Newtons, ...)
If the header above contains a line with 'inDegrees', this indicates whether rotational values are in degrees (yes) or radians (no).

endheader
time	sternoclavicular_r2	sternoclavicular_r3	unrotscap_r3	unrotscap_r2	acromioclavicular_r2	acromioclavicular_r3	acromioclavicular_r1	unrothum_r1	unrothum_r3	unrothum_r2	elv_angle	shoulder_elv	shoulder1_r2	shoulder_rot	elbow_flexion	pro_sup	deviation	flexion	proximal_distal_r1	proximal_distal_r3	cmc_flexion	cmc_abduction	mp_flexion	ip_flexion	mcp2_flexion	mcp2_abduction	pm2_flexion	md2_flexion	mcp3_flexion	mcp3_abduction	pm3_flexion	md3_flexion	mcp4_flexion	mcp4_abduction	pm4_flexion	md4_flexion	mcp5_flexion	mcp5_abduction	pm5_flexion	md5_flexion	bicpt_tx	bicpt_ty	bicpt_tz	bicpt2_tx	bicpt2_ty	bicpt2_tz	ptpt_tx	ptpt_ty	ptpt_tz	FCUpt_tx	FCUpt_ty	FCUpt_tz	EDCpt_tx	EDCpt_ty	EDCpt_tz	APLpt_tx	APLpt_ty	APLpt_tz	FPLpt_tx	FPLpt_ty	FPLpt_tz	FPLpt2_tx	FPLpt2_ty	FPLpt2_tz	PEC1pt2_tx	PEC1pt2_ty	PEC1pt2_tz	PEC1pt3_tx	PEC1pt3_ty	PEC1pt3_tz	PEC2pt2_tx	PEC2pt2_ty	PEC2pt2_tz	PEC2pt3_tx	PEC2pt3_ty	PEC2pt3_tz	PEC3pt2_tx	PEC3pt2_ty	PEC3pt2_tz	PEC3pt3_tx	PEC3pt3_ty	PEC3pt3_tz	DELT2pt2a_tx	DELT2pt2a_ty	DELT2pt2a_tz	DELT2pt2_tx	DELT2pt2_ty	DELT2pt2_tz	LAT1pt2_tx	LAT1pt2_ty	LAT1pt2_tz	LAT1pt3_tx	LAT1pt3_ty	LAT1pt3_tz	LAT2pt2_tx	LAT2pt2_ty	LAT2pt2_tz	LAT2pt3_tx	LAT2pt3_ty	LAT2pt3_tz	LAT3pt2_tx	LAT3pt2_ty	LAT3pt2_tz	LAT3pt3_tx	LAT3pt3_ty	LAT3pt3_tz
      1.23333333	     -0.32106777	      0.13598915	     -0.13598915	      0.32106777	     -0.06500969	      0.52538546	      0.23615715	     -0.23615715	     -0.52538546	      0.06500969	     99.03458655	     76.01564763	     -1.72847961	    -22.64471974	     29.02465813	     20.90497485	      0.00973025	     -0.88095501	      0.01312781	     -0.44047751	      3.15796635	      6.91986771	    -33.84199098	    -40.60538975	     -7.86440531	      9.95852946	     31.87374881	      2.15248354	     51.87512583	      9.45571412	     81.31837652	     60.69610954	     40.97162622	     -5.56596456	     86.70825917	     34.38394846	     -0.63743610	    -13.28029096	    -10.40816594	      5.00832858	      0.00086005	     -0.03092667	     -0.00483584	      0.01612165	     -0.01808469	     -0.00925284	      0.00600536	     -0.06589879	     -0.00173401	      0.00591404	     -0.18384052	     -0.00011357	     -0.00250859	      0.00065975	      0.00018470	      0.00025141	      0.00010056	      0.00050282	      0.00032180	      0.00096541	      0.00054304	      0.00004220	     -0.00007341	     -0.00008809	      0.00249163	      0.00874181	      0.00608126	     -0.00815057	      0.01967962	     -0.01866608	      0.00249163	      0.00874181	      0.00608126	      0.00054900	      0.01824377	     -0.00958643	      0.00394221	      0.00486121	      0.01595361	      0.00000000	      0.00772758	      0.00000000	     -0.00713703	     -0.03298237	     -0.00637145	      0.01525562	     -0.00051452	     -0.00427040	     -0.00088685	      0.01486529	     -0.00608126	      0.00244940	      0.02145332	     -0.01773700	     -0.00595456	      0.01288044	     -0.00544779	     -0.01241590	      0.02719673	     -0.03044852	     -0.02331148	      0.01440075	     -0.00730595	     -0.01545653	      0.03141983	     -0.03805009
      1.26666667	     -0.32199808	      0.13638319	     -0.13638319	      0.32199808	     -0.06519806	      0.52690780	      0.23684143	     -0.23684143	     -0.52690780	      0.06519806	     98.78404012	     76.23590791	     -1.72410675	    -21.42189606	     29.09087137	     19.74705253	      0.01107946	     -0.93918569	      0.01493592	     -0.46959284	      3.00085086	      7.26674314	    -32.68339951	    -36.48561791	     -5.23999743	     10.42033419	     33.03800660	      6.09510412	     49.82577248	      9.92327264	     79.76160872	     58.55375187	     39.38674707	     -4.46574922	     84.03542721	     33.73610586	      2.46948969	    -13.32926139	     -8.33707519	      5.01198608	      0.00086224	     -0.03093426	     -0.00483706	      0.01606739	     -0.01810268	     -0.00934451	      0.00609092	     -0.06584347	     -0.00164073	      0.00580449	     -0.18385814	     -0.00008820	     -0.00236964	      0.00061967	      0.00018066	      0.00022223	      0.00008889	      0.00044446	      0.00028445	      0.00085335	      0.00048001	      0.00004198	     -0.00007003	     -0.00008404	      0.00249885	      0.00876714	      0.00609888	     -0.00817419	      0.01973665	     -0.01872017	      0.00249885	      0.00876714	      0.00609888	      0.00055059	      0.01829663	     -0.00961420	      0.00395055	      0.00487529	      0.01597402	      0.00000000	      0.00777273	      0.00000000	     -0.00715771	     -0.03307794	     -0.00640894	      0.01458350	     -0.00047600	     -0.00380729	     -0.00088942	      0.01490837	     -0.00609888	      0.00245649	      0.02151549	     -0.01778839	     -0.00597182	      0.01291776	     -0.00546358	     -0.01245188	      0.02727554	     -0.03053674	     -0.02337903	      0.01444248	     -0.00732712	     -0.01550131	      0.03151087	     -0.03816034
      1.30000000	     -0.32182277	      0.13630894	     -0.13630894	      0.32182277	     -0.06516256	      0.52662093	      0.23671248	     -0.23671248	     -0.52662093	      0.06516256	     98.71565477	     76.19440170	     -1.72291320	    -21.62876299	     29.35208887	     20.29081819	      0.00991570	     -0.96920822	      0.01337722	     -0.48460411	      3.34294623	      6.86970384	    -30.66697813	    -34.61503914	     -3.93388320	     10.90879457	     34.74987882	      6.99450610	     46.07813664	     10.51803369	     77.14252028	     57.62806068	     36.84314413	     -3.15086534	     80.52621775	     32.50862379	      4.68980758	    -13.33165254	     -6.97286483	      5.03902729	      0.00087088	     -0.03096420	     -0.00484188	      0.01609325	     -0.01817364	     -0.00930169	      0.00605074	     -0.06586945	     -0.00168453	      0.00585589	     -0.18384991	     -0.00010024	     -0.00243489	      0.00063844	      0.00018265	      0.00020496	      0.00008199	      0.00040993	      0.00026235	      0.00078706	      0.00044272	      0.00004244	     -0.00007738	     -0.00009285	      0.00249749	      0.00876236	      0.00609556	     -0.00816974	      0.01972590	     -0.01870997	      0.00249749	      0.00876236	      0.00609556	      0.00055029	      0.01828667	     -0.00960897	      0.00394898	      0.00487264	      0.01597018	      0.00000000	      0.00776422	      0.00000000	     -0.00715381	     -0.03305993	     -0.00640187	      0.01469840	     -0.00048248	     -0.00388428	     -0.00088894	      0.01490025	     -0.00609556	      0.00245516	      0.02150377	     -0.01777871	     -0.00596857	      0.01291073	     -0.00546060	     -0.01244510	      0.02726069	     -0.03052012	     -0.02336630	      0.01443462	     -0.00732313	     -0.01549287	      0.03149371	     -0.03813956
      1.33333333	     -0.32136645	      0.13611566	     -0.13611566	      0.32136645	     -0.06507017	      0.52587422	      0.23637684	     -0.23637684	     -0.52587422	      0.06507017	     98.72931955	     76.08636384	     -1.72315169	    -22.09990536	     29.56905790	     20.67090808	      0.00569498	     -1.00541491	      0.00770332	     -0.50270745	      3.28155118	      6.55954633	    -28.11408234	    -31.08777291	     -2.56507938	     11.25363706	     36.11960896	      7.90974618	     41.91204645	     10.83647045	     72.90299252	     55.63145582	     33.88300031	     -2.06947460	     75.45870109	     30.86339667	      6.58681747	    -13.39128380	     -5.58898932	      5.08356282	      0.00087805	     -0.03098907	     -0.00484589	      0.01611093	     -0.01823258	     -0.00927152	      0.00602265	     -0.06588761	     -0.00171515	      0.00589186	     -0.18384411	     -0.00010852	     -0.00248050	      0.00065161	      0.00018394	      0.00018214	      0.00007286	      0.00036428	      0.00023314	      0.00069942	      0.00039342	      0.00004250	     -0.00007610	     -0.00009132	      0.00249394	      0.00874994	      0.00608691	     -0.00815816	      0.01969793	     -0.01868345	      0.00249394	      0.00874994	      0.00608691	      0.00054951	      0.01826074	     -0.00959534	      0.00394489	      0.00486573	      0.01596018	      0.00000000	      0.00774206	      0.00000000	     -0.00714367	     -0.03301306	     -0.00638347	      0.01495855	     -0.00049729	     -0.00406138	     -0.00088767	      0.01487912	     -0.00608691	      0.00245167	      0.02147328	     -0.01775350	     -0.00596010	      0.01289242	     -0.00545286	     -0.01242745	      0.02722203	     -0.03047684	     -0.02333317	      0.01441415	     -0.00731275	     -0.01547091	      0.03144906	     -0.03808548
